<svg xmlns="http://www.w3.org/2000/svg" version="1.1" xmlns:xlink="http://www.w3.org/1999/xlink" xmlns:svgjs="http://svgjs.dev/svgjs" viewBox="0 0 800 800" preserveAspectRatio="xMidYMid slice"><defs><pattern id="pppixelate-pattern" width="20" height="20" patternUnits="userSpaceOnUse" patternTransform="translate(0 0) scale(40) rotate(0)" shape-rendering="crispEdges">
    <rect width="1" height="1" x="7" y="3" fill="hsl(0, 0%, 0%)"></rect><rect width="1" height="1" x="9" y="3" fill="hsl(0, 0%, 0%)"></rect><rect width="1" height="1" x="6" y="4" fill="hsl(0, 0%, 0%)"></rect><rect width="1" height="1" x="7" y="4" fill="hsl(0, 0%, 45%)"></rect><rect width="1" height="1" x="8" y="4" fill="hsl(0, 0%, 0%)"></rect><rect width="1" height="1" x="9" y="4" fill="hsl(0, 0%, 45%)"></rect><rect width="1" height="1" x="10" y="4" fill="hsl(0, 0%, 0%)"></rect><rect width="1" height="1" x="6" y="5" fill="hsl(0, 0%, 0%)"></rect><rect width="1" height="1" x="7" y="5" fill="hsla(190, 40%, 62%, 1.00)"></rect><rect width="1" height="1" x="8" y="5" fill="hsl(0, 0%, 0%)"></rect><rect width="1" height="1" x="9" y="5" fill="hsla(190, 40%, 62%, 1.00)"></rect><rect width="1" height="1" x="10" y="5" fill="hsl(0, 0%, 0%)"></rect><rect width="1" height="1" x="6" y="6" fill="hsl(0, 0%, 0%)"></rect><rect width="1" height="1" x="7" y="6" fill="hsla(70, 29%, 65%, 1.00)"></rect><rect width="1" height="1" x="8" y="6" fill="hsl(0, 0%, 0%)"></rect><rect width="1" height="1" x="9" y="6" fill="hsla(70, 29%, 65%, 1.00)"></rect><rect width="1" height="1" x="10" y="6" fill="hsl(0, 0%, 0%)"></rect><rect width="1" height="1" x="5" y="7" fill="hsl(0, 0%, 0%)"></rect><rect width="1" height="1" x="6" y="7" fill="hsla(190, 40%, 62%, 1.00)"></rect><rect width="1" height="1" x="7" y="7" fill="hsl(0, 0%, 45%)"></rect><rect width="1" height="1" x="8" y="7" fill="hsla(190, 40%, 62%, 1.00)"></rect><rect width="1" height="1" x="9" y="7" fill="hsla(70, 29%, 65%, 1.00)"></rect><rect width="1" height="1" x="10" y="7" fill="hsl(0, 0%, 0%)"></rect><rect width="1" height="1" x="4" y="8" fill="hsl(0, 0%, 0%)"></rect><rect width="1" height="1" x="5" y="8" fill="hsla(190, 40%, 62%, 1.00)"></rect><rect width="1" height="1" x="6" y="8" fill="hsl(0, 0%, 45%)"></rect><rect width="1" height="1" x="7" y="8" fill="hsl(0, 0%, 45%)"></rect><rect width="1" height="1" x="8" y="8" fill="hsl(0, 0%, 45%)"></rect><rect width="1" height="1" x="9" y="8" fill="hsla(190, 40%, 62%, 1.00)"></rect><rect width="1" height="1" x="10" y="8" fill="hsla(305, 31%, 61%, 1.00)"></rect><rect width="1" height="1" x="11" y="8" fill="hsl(0, 0%, 0%)"></rect><rect width="1" height="1" x="12" y="8" fill="hsl(0, 0%, 0%)"></rect><rect width="1" height="1" x="13" y="8" fill="hsl(0, 0%, 0%)"></rect><rect width="1" height="1" x="4" y="9" fill="hsl(0, 0%, 0%)"></rect><rect width="1" height="1" x="5" y="9" fill="hsl(0, 0%, 45%)"></rect><rect width="1" height="1" x="6" y="9" fill="hsl(0, 0%, 45%)"></rect><rect width="1" height="1" x="7" y="9" fill="hsl(0, 0%, 0%)"></rect><rect width="1" height="1" x="8" y="9" fill="hsl(0, 0%, 45%)"></rect><rect width="1" height="1" x="9" y="9" fill="hsl(0, 0%, 45%)"></rect><rect width="1" height="1" x="10" y="9" fill="hsla(190, 40%, 62%, 1.00)"></rect><rect width="1" height="1" x="11" y="9" fill="hsla(70, 29%, 65%, 1.00)"></rect><rect width="1" height="1" x="12" y="9" fill="hsl(0, 0%, 45%)"></rect><rect width="1" height="1" x="13" y="9" fill="hsla(190, 40%, 62%, 1.00)"></rect><rect width="1" height="1" x="14" y="9" fill="hsl(0, 0%, 0%)"></rect><rect width="1" height="1" x="4" y="10" fill="hsl(0, 0%, 0%)"></rect><rect width="1" height="1" x="5" y="10" fill="hsl(0, 0%, 45%)"></rect><rect width="1" height="1" x="6" y="10" fill="hsl(0, 0%, 45%)"></rect><rect width="1" height="1" x="7" y="10" fill="hsl(0, 0%, 0%)"></rect><rect width="1" height="1" x="8" y="10" fill="hsl(0, 0%, 45%)"></rect><rect width="1" height="1" x="9" y="10" fill="hsl(0, 0%, 45%)"></rect><rect width="1" height="1" x="10" y="10" fill="hsla(70, 29%, 65%, 1.00)"></rect><rect width="1" height="1" x="11" y="10" fill="hsl(0, 0%, 45%)"></rect><rect width="1" height="1" x="12" y="10" fill="hsl(0, 0%, 45%)"></rect><rect width="1" height="1" x="13" y="10" fill="hsl(0, 0%, 45%)"></rect><rect width="1" height="1" x="14" y="10" fill="hsla(305, 31%, 61%, 1.00)"></rect><rect width="1" height="1" x="15" y="10" fill="hsl(0, 0%, 0%)"></rect><rect width="1" height="1" x="16" y="10" fill="hsl(0, 0%, 0%)"></rect><rect width="1" height="1" x="4" y="11" fill="hsl(0, 0%, 0%)"></rect><rect width="1" height="1" x="5" y="11" fill="hsl(0, 0%, 45%)"></rect><rect width="1" height="1" x="6" y="11" fill="hsl(0, 0%, 45%)"></rect><rect width="1" height="1" x="7" y="11" fill="hsl(0, 0%, 45%)"></rect><rect width="1" height="1" x="8" y="11" fill="hsl(0, 0%, 45%)"></rect><rect width="1" height="1" x="9" y="11" fill="hsla(70, 29%, 65%, 1.00)"></rect><rect width="1" height="1" x="10" y="11" fill="hsl(0, 0%, 45%)"></rect><rect width="1" height="1" x="11" y="11" fill="hsl(0, 0%, 45%)"></rect><rect width="1" height="1" x="12" y="11" fill="hsla(70, 29%, 65%, 1.00)"></rect><rect width="1" height="1" x="13" y="11" fill="hsla(190, 40%, 62%, 1.00)"></rect><rect width="1" height="1" x="14" y="11" fill="hsla(70, 29%, 65%, 1.00)"></rect><rect width="1" height="1" x="15" y="11" fill="hsl(0, 0%, 0%)"></rect><rect width="1" height="1" x="16" y="11" fill="hsl(0, 0%, 45%)"></rect><rect width="1" height="1" x="17" y="11" fill="hsl(0, 0%, 0%)"></rect><rect width="1" height="1" x="5" y="12" fill="hsl(0, 0%, 0%)"></rect><rect width="1" height="1" x="6" y="12" fill="hsl(0, 0%, 0%)"></rect><rect width="1" height="1" x="7" y="12" fill="hsla(305, 31%, 61%, 1.00)"></rect><rect width="1" height="1" x="8" y="12" fill="hsla(70, 29%, 65%, 1.00)"></rect><rect width="1" height="1" x="9" y="12" fill="hsl(0, 0%, 45%)"></rect><rect width="1" height="1" x="10" y="12" fill="hsl(0, 0%, 45%)"></rect><rect width="1" height="1" x="11" y="12" fill="hsla(70, 29%, 65%, 1.00)"></rect><rect width="1" height="1" x="12" y="12" fill="hsla(190, 40%, 62%, 1.00)"></rect><rect width="1" height="1" x="13" y="12" fill="hsla(190, 40%, 62%, 1.00)"></rect><rect width="1" height="1" x="14" y="12" fill="hsla(190, 40%, 62%, 1.00)"></rect><rect width="1" height="1" x="15" y="12" fill="hsla(305, 31%, 61%, 1.00)"></rect><rect width="1" height="1" x="16" y="12" fill="hsl(0, 0%, 45%)"></rect><rect width="1" height="1" x="17" y="12" fill="hsl(0, 0%, 0%)"></rect><rect width="1" height="1" x="7" y="13" fill="hsl(0, 0%, 0%)"></rect><rect width="1" height="1" x="8" y="13" fill="hsla(305, 31%, 61%, 1.00)"></rect><rect width="1" height="1" x="9" y="13" fill="hsl(0, 0%, 45%)"></rect><rect width="1" height="1" x="10" y="13" fill="hsl(0, 0%, 45%)"></rect><rect width="1" height="1" x="11" y="13" fill="hsla(70, 29%, 65%, 1.00)"></rect><rect width="1" height="1" x="12" y="13" fill="hsl(0, 0%, 0%)"></rect><rect width="1" height="1" x="13" y="13" fill="hsl(0, 0%, 0%)"></rect><rect width="1" height="1" x="14" y="13" fill="hsla(70, 29%, 65%, 1.00)"></rect><rect width="1" height="1" x="15" y="13" fill="hsla(70, 29%, 65%, 1.00)"></rect><rect width="1" height="1" x="16" y="13" fill="hsl(0, 0%, 0%)"></rect><rect width="1" height="1" x="6" y="14" fill="hsl(0, 0%, 0%)"></rect><rect width="1" height="1" x="7" y="14" fill="hsl(0, 0%, 45%)"></rect><rect width="1" height="1" x="8" y="14" fill="hsl(0, 0%, 45%)"></rect><rect width="1" height="1" x="9" y="14" fill="hsl(0, 0%, 0%)"></rect><rect width="1" height="1" x="10" y="14" fill="hsl(0, 0%, 0%)"></rect><rect width="1" height="1" x="11" y="14" fill="hsl(0, 0%, 0%)"></rect><rect width="1" height="1" x="12" y="14" fill="hsl(0, 0%, 45%)"></rect><rect width="1" height="1" x="13" y="14" fill="hsl(0, 0%, 45%)"></rect><rect width="1" height="1" x="14" y="14" fill="hsl(0, 0%, 45%)"></rect><rect width="1" height="1" x="15" y="14" fill="hsla(190, 40%, 62%, 1.00)"></rect><rect width="1" height="1" x="16" y="14" fill="hsl(0, 0%, 0%)"></rect><rect width="1" height="1" x="6" y="15" fill="hsl(0, 0%, 0%)"></rect><rect width="1" height="1" x="7" y="15" fill="hsl(0, 0%, 0%)"></rect><rect width="1" height="1" x="8" y="15" fill="hsl(0, 0%, 0%)"></rect><rect width="1" height="1" x="11" y="15" fill="hsl(0, 0%, 0%)"></rect><rect width="1" height="1" x="12" y="15" fill="hsl(0, 0%, 0%)"></rect><rect width="1" height="1" x="13" y="15" fill="hsl(0, 0%, 0%)"></rect><rect width="1" height="1" x="14" y="15" fill="hsl(0, 0%, 0%)"></rect><rect width="1" height="1" x="15" y="15" fill="hsl(0, 0%, 0%)"></rect><rect width="1" height="1" x="16" y="15" fill="hsl(0, 0%, 0%)"></rect>
  </pattern></defs><rect width="100%" height="100%" fill="url(#pppixelate-pattern)"></rect></svg>